<mxfile host="app.diagrams.net" modified="2022-07-19T16:17:06.194Z" agent="5.0 (Windows NT 10.0; Win64; x64) AppleWebKit/537.36 (KHTML, like Gecko) Chrome/103.0.0.0 Safari/537.36" etag="_ROAJTlVEJ6l2OI4vu2c" version="20.0.4" type="github">
  <diagram id="eMQgN-6Ai6x8IZ4_6Zg0" name="Page-1">
    <mxGraphModel dx="848" dy="882" grid="1" gridSize="10" guides="1" tooltips="1" connect="1" arrows="1" fold="1" page="1" pageScale="1" pageWidth="827" pageHeight="1169" math="0" shadow="0">
      <root>
        <mxCell id="0" />
        <mxCell id="1" parent="0" />
        <mxCell id="UWuhOz-n3EonqX5J7xm5-2" value="se realiza" style="edgeStyle=orthogonalEdgeStyle;rounded=0;jumpSize=15;orthogonalLoop=1;jettySize=auto;html=1;endArrow=none;endFill=0;entryX=0.5;entryY=0;entryDx=0;entryDy=0;exitX=0.5;exitY=1;exitDx=0;exitDy=0;" edge="1" parent="1" source="UWuhOz-n3EonqX5J7xm5-3" target="UWuhOz-n3EonqX5J7xm5-29">
          <mxGeometry relative="1" as="geometry">
            <mxPoint x="359" y="280" as="targetPoint" />
            <Array as="points">
              <mxPoint x="309" y="650" />
              <mxPoint x="309" y="650" />
            </Array>
          </mxGeometry>
        </mxCell>
        <mxCell id="UWuhOz-n3EonqX5J7xm5-3" value="Viaje" style="swimlane;fontStyle=1;align=center;verticalAlign=top;childLayout=stackLayout;horizontal=1;startSize=26;horizontalStack=0;resizeParent=1;resizeParentMax=0;resizeLast=0;collapsible=1;marginBottom=0;" vertex="1" parent="1">
          <mxGeometry x="280" y="430" width="180" height="104" as="geometry" />
        </mxCell>
        <mxCell id="UWuhOz-n3EonqX5J7xm5-4" value="+ fecha: Date&#xa;+ listaPasajeros: listaPasajeros" style="text;strokeColor=none;fillColor=none;align=left;verticalAlign=top;spacingLeft=4;spacingRight=4;overflow=hidden;rotatable=0;points=[[0,0.5],[1,0.5]];portConstraint=eastwest;" vertex="1" parent="UWuhOz-n3EonqX5J7xm5-3">
          <mxGeometry y="26" width="180" height="44" as="geometry" />
        </mxCell>
        <mxCell id="UWuhOz-n3EonqX5J7xm5-5" value="" style="line;strokeWidth=1;fillColor=none;align=left;verticalAlign=middle;spacingTop=-1;spacingLeft=3;spacingRight=3;rotatable=0;labelPosition=right;points=[];portConstraint=eastwest;" vertex="1" parent="UWuhOz-n3EonqX5J7xm5-3">
          <mxGeometry y="70" width="180" height="8" as="geometry" />
        </mxCell>
        <mxCell id="UWuhOz-n3EonqX5J7xm5-6" value="+ method(type): type" style="text;strokeColor=none;fillColor=none;align=left;verticalAlign=top;spacingLeft=4;spacingRight=4;overflow=hidden;rotatable=0;points=[[0,0.5],[1,0.5]];portConstraint=eastwest;" vertex="1" parent="UWuhOz-n3EonqX5J7xm5-3">
          <mxGeometry y="78" width="180" height="26" as="geometry" />
        </mxCell>
        <mxCell id="UWuhOz-n3EonqX5J7xm5-7" value="Ruta" style="swimlane;fontStyle=1;align=center;verticalAlign=top;childLayout=stackLayout;horizontal=1;startSize=26;horizontalStack=0;resizeParent=1;resizeParentMax=0;resizeLast=0;collapsible=1;marginBottom=0;" vertex="1" parent="1">
          <mxGeometry x="4" y="690" width="160" height="104" as="geometry" />
        </mxCell>
        <mxCell id="UWuhOz-n3EonqX5J7xm5-8" value="+ destino:String&#xa;+ origen : String" style="text;strokeColor=none;fillColor=none;align=left;verticalAlign=top;spacingLeft=4;spacingRight=4;overflow=hidden;rotatable=0;points=[[0,0.5],[1,0.5]];portConstraint=eastwest;" vertex="1" parent="UWuhOz-n3EonqX5J7xm5-7">
          <mxGeometry y="26" width="160" height="44" as="geometry" />
        </mxCell>
        <mxCell id="UWuhOz-n3EonqX5J7xm5-9" value="" style="line;strokeWidth=1;fillColor=none;align=left;verticalAlign=middle;spacingTop=-1;spacingLeft=3;spacingRight=3;rotatable=0;labelPosition=right;points=[];portConstraint=eastwest;" vertex="1" parent="UWuhOz-n3EonqX5J7xm5-7">
          <mxGeometry y="70" width="160" height="8" as="geometry" />
        </mxCell>
        <mxCell id="UWuhOz-n3EonqX5J7xm5-10" value="+ method(type): type" style="text;strokeColor=none;fillColor=none;align=left;verticalAlign=top;spacingLeft=4;spacingRight=4;overflow=hidden;rotatable=0;points=[[0,0.5],[1,0.5]];portConstraint=eastwest;" vertex="1" parent="UWuhOz-n3EonqX5J7xm5-7">
          <mxGeometry y="78" width="160" height="26" as="geometry" />
        </mxCell>
        <mxCell id="UWuhOz-n3EonqX5J7xm5-11" value="Boleto" style="swimlane;fontStyle=1;align=center;verticalAlign=top;childLayout=stackLayout;horizontal=1;startSize=26;horizontalStack=0;resizeParent=1;resizeParentMax=0;resizeLast=0;collapsible=1;marginBottom=0;" vertex="1" parent="1">
          <mxGeometry x="450" y="310" width="160" height="86" as="geometry" />
        </mxCell>
        <mxCell id="UWuhOz-n3EonqX5J7xm5-12" value="+ field: type" style="text;strokeColor=none;fillColor=none;align=left;verticalAlign=top;spacingLeft=4;spacingRight=4;overflow=hidden;rotatable=0;points=[[0,0.5],[1,0.5]];portConstraint=eastwest;" vertex="1" parent="UWuhOz-n3EonqX5J7xm5-11">
          <mxGeometry y="26" width="160" height="26" as="geometry" />
        </mxCell>
        <mxCell id="UWuhOz-n3EonqX5J7xm5-13" value="" style="line;strokeWidth=1;fillColor=none;align=left;verticalAlign=middle;spacingTop=-1;spacingLeft=3;spacingRight=3;rotatable=0;labelPosition=right;points=[];portConstraint=eastwest;" vertex="1" parent="UWuhOz-n3EonqX5J7xm5-11">
          <mxGeometry y="52" width="160" height="8" as="geometry" />
        </mxCell>
        <mxCell id="UWuhOz-n3EonqX5J7xm5-14" value="+ method(type): type" style="text;strokeColor=none;fillColor=none;align=left;verticalAlign=top;spacingLeft=4;spacingRight=4;overflow=hidden;rotatable=0;points=[[0,0.5],[1,0.5]];portConstraint=eastwest;" vertex="1" parent="UWuhOz-n3EonqX5J7xm5-11">
          <mxGeometry y="60" width="160" height="26" as="geometry" />
        </mxCell>
        <mxCell id="UWuhOz-n3EonqX5J7xm5-15" value="Tiene" style="edgeStyle=orthogonalEdgeStyle;rounded=0;orthogonalLoop=1;jettySize=auto;html=1;entryX=0.99;entryY=-0.3;entryDx=0;entryDy=0;entryPerimeter=0;endArrow=none;endFill=0;exitX=0;exitY=0.5;exitDx=0;exitDy=0;" edge="1" parent="1" source="UWuhOz-n3EonqX5J7xm5-17" target="UWuhOz-n3EonqX5J7xm5-38">
          <mxGeometry relative="1" as="geometry" />
        </mxCell>
        <mxCell id="UWuhOz-n3EonqX5J7xm5-16" value="Reservacion" style="swimlane;fontStyle=1;align=center;verticalAlign=top;childLayout=stackLayout;horizontal=1;startSize=26;horizontalStack=0;resizeParent=1;resizeParentMax=0;resizeLast=0;collapsible=1;marginBottom=0;" vertex="1" parent="1">
          <mxGeometry x="653" y="744" width="160" height="86" as="geometry" />
        </mxCell>
        <mxCell id="UWuhOz-n3EonqX5J7xm5-17" value="+ field: type" style="text;strokeColor=none;fillColor=none;align=left;verticalAlign=top;spacingLeft=4;spacingRight=4;overflow=hidden;rotatable=0;points=[[0,0.5],[1,0.5]];portConstraint=eastwest;" vertex="1" parent="UWuhOz-n3EonqX5J7xm5-16">
          <mxGeometry y="26" width="160" height="26" as="geometry" />
        </mxCell>
        <mxCell id="UWuhOz-n3EonqX5J7xm5-18" value="" style="line;strokeWidth=1;fillColor=none;align=left;verticalAlign=middle;spacingTop=-1;spacingLeft=3;spacingRight=3;rotatable=0;labelPosition=right;points=[];portConstraint=eastwest;" vertex="1" parent="UWuhOz-n3EonqX5J7xm5-16">
          <mxGeometry y="52" width="160" height="8" as="geometry" />
        </mxCell>
        <mxCell id="UWuhOz-n3EonqX5J7xm5-19" value="+ method(type): type" style="text;strokeColor=none;fillColor=none;align=left;verticalAlign=top;spacingLeft=4;spacingRight=4;overflow=hidden;rotatable=0;points=[[0,0.5],[1,0.5]];portConstraint=eastwest;" vertex="1" parent="UWuhOz-n3EonqX5J7xm5-16">
          <mxGeometry y="60" width="160" height="26" as="geometry" />
        </mxCell>
        <mxCell id="UWuhOz-n3EonqX5J7xm5-20" value="ListaPasajeros" style="swimlane;fontStyle=1;align=center;verticalAlign=top;childLayout=stackLayout;horizontal=1;startSize=26;horizontalStack=0;resizeParent=1;resizeParentMax=0;resizeLast=0;collapsible=1;marginBottom=0;" vertex="1" parent="1">
          <mxGeometry x="590" y="430" width="160" height="86" as="geometry" />
        </mxCell>
        <mxCell id="UWuhOz-n3EonqX5J7xm5-21" value="+ field: type" style="text;strokeColor=none;fillColor=none;align=left;verticalAlign=top;spacingLeft=4;spacingRight=4;overflow=hidden;rotatable=0;points=[[0,0.5],[1,0.5]];portConstraint=eastwest;" vertex="1" parent="UWuhOz-n3EonqX5J7xm5-20">
          <mxGeometry y="26" width="160" height="26" as="geometry" />
        </mxCell>
        <mxCell id="UWuhOz-n3EonqX5J7xm5-22" value="" style="line;strokeWidth=1;fillColor=none;align=left;verticalAlign=middle;spacingTop=-1;spacingLeft=3;spacingRight=3;rotatable=0;labelPosition=right;points=[];portConstraint=eastwest;" vertex="1" parent="UWuhOz-n3EonqX5J7xm5-20">
          <mxGeometry y="52" width="160" height="8" as="geometry" />
        </mxCell>
        <mxCell id="UWuhOz-n3EonqX5J7xm5-23" value="+ method(type): type" style="text;strokeColor=none;fillColor=none;align=left;verticalAlign=top;spacingLeft=4;spacingRight=4;overflow=hidden;rotatable=0;points=[[0,0.5],[1,0.5]];portConstraint=eastwest;" vertex="1" parent="UWuhOz-n3EonqX5J7xm5-20">
          <mxGeometry y="60" width="160" height="26" as="geometry" />
        </mxCell>
        <mxCell id="UWuhOz-n3EonqX5J7xm5-24" style="edgeStyle=orthogonalEdgeStyle;rounded=0;orthogonalLoop=1;jettySize=auto;html=1;entryX=0.507;entryY=1.023;entryDx=0;entryDy=0;entryPerimeter=0;endArrow=block;endFill=0;" edge="1" parent="1" source="UWuhOz-n3EonqX5J7xm5-25" target="UWuhOz-n3EonqX5J7xm5-53">
          <mxGeometry relative="1" as="geometry" />
        </mxCell>
        <mxCell id="UWuhOz-n3EonqX5J7xm5-25" value="Bus" style="swimlane;fontStyle=1;align=center;verticalAlign=top;childLayout=stackLayout;horizontal=1;startSize=26;horizontalStack=0;resizeParent=1;resizeParentMax=0;resizeLast=0;collapsible=1;marginBottom=0;" vertex="1" parent="1">
          <mxGeometry x="4" y="430" width="160" height="104" as="geometry" />
        </mxCell>
        <mxCell id="UWuhOz-n3EonqX5J7xm5-26" value="+ numero: int&#xa;+ capacidadMaxima: int" style="text;strokeColor=none;fillColor=none;align=left;verticalAlign=top;spacingLeft=4;spacingRight=4;overflow=hidden;rotatable=0;points=[[0,0.5],[1,0.5]];portConstraint=eastwest;" vertex="1" parent="UWuhOz-n3EonqX5J7xm5-25">
          <mxGeometry y="26" width="160" height="44" as="geometry" />
        </mxCell>
        <mxCell id="UWuhOz-n3EonqX5J7xm5-27" value="" style="line;strokeWidth=1;fillColor=none;align=left;verticalAlign=middle;spacingTop=-1;spacingLeft=3;spacingRight=3;rotatable=0;labelPosition=right;points=[];portConstraint=eastwest;" vertex="1" parent="UWuhOz-n3EonqX5J7xm5-25">
          <mxGeometry y="70" width="160" height="8" as="geometry" />
        </mxCell>
        <mxCell id="UWuhOz-n3EonqX5J7xm5-28" value="+ method(type): type" style="text;strokeColor=none;fillColor=none;align=left;verticalAlign=top;spacingLeft=4;spacingRight=4;overflow=hidden;rotatable=0;points=[[0,0.5],[1,0.5]];portConstraint=eastwest;" vertex="1" parent="UWuhOz-n3EonqX5J7xm5-25">
          <mxGeometry y="78" width="160" height="26" as="geometry" />
        </mxCell>
        <mxCell id="UWuhOz-n3EonqX5J7xm5-29" value="Turno" style="swimlane;fontStyle=1;align=center;verticalAlign=top;childLayout=stackLayout;horizontal=1;startSize=26;horizontalStack=0;resizeParent=1;resizeParentMax=0;resizeLast=0;collapsible=1;marginBottom=0;" vertex="1" parent="1">
          <mxGeometry x="229" y="690" width="160" height="86" as="geometry" />
        </mxCell>
        <mxCell id="UWuhOz-n3EonqX5J7xm5-30" value="+ numero: int" style="text;strokeColor=none;fillColor=none;align=left;verticalAlign=top;spacingLeft=4;spacingRight=4;overflow=hidden;rotatable=0;points=[[0,0.5],[1,0.5]];portConstraint=eastwest;" vertex="1" parent="UWuhOz-n3EonqX5J7xm5-29">
          <mxGeometry y="26" width="160" height="26" as="geometry" />
        </mxCell>
        <mxCell id="UWuhOz-n3EonqX5J7xm5-31" value="" style="line;strokeWidth=1;fillColor=none;align=left;verticalAlign=middle;spacingTop=-1;spacingLeft=3;spacingRight=3;rotatable=0;labelPosition=right;points=[];portConstraint=eastwest;" vertex="1" parent="UWuhOz-n3EonqX5J7xm5-29">
          <mxGeometry y="52" width="160" height="8" as="geometry" />
        </mxCell>
        <mxCell id="UWuhOz-n3EonqX5J7xm5-32" value="+ method(type): type" style="text;strokeColor=none;fillColor=none;align=left;verticalAlign=top;spacingLeft=4;spacingRight=4;overflow=hidden;rotatable=0;points=[[0,0.5],[1,0.5]];portConstraint=eastwest;" vertex="1" parent="UWuhOz-n3EonqX5J7xm5-29">
          <mxGeometry y="60" width="160" height="26" as="geometry" />
        </mxCell>
        <mxCell id="UWuhOz-n3EonqX5J7xm5-33" style="edgeStyle=orthogonalEdgeStyle;rounded=0;orthogonalLoop=1;jettySize=auto;html=1;entryX=0.515;entryY=0.977;entryDx=0;entryDy=0;entryPerimeter=0;endArrow=block;endFill=0;" edge="1" parent="1" source="UWuhOz-n3EonqX5J7xm5-35" target="UWuhOz-n3EonqX5J7xm5-49">
          <mxGeometry relative="1" as="geometry" />
        </mxCell>
        <mxCell id="UWuhOz-n3EonqX5J7xm5-34" value="" style="edgeStyle=orthogonalEdgeStyle;rounded=0;jumpSize=15;orthogonalLoop=1;jettySize=auto;html=1;endArrow=diamond;endFill=0;entryX=1;entryY=0.5;entryDx=0;entryDy=0;exitX=1;exitY=0.25;exitDx=0;exitDy=0;startArrow=open;startFill=0;" edge="1" parent="1" source="UWuhOz-n3EonqX5J7xm5-35" target="UWuhOz-n3EonqX5J7xm5-21">
          <mxGeometry relative="1" as="geometry" />
        </mxCell>
        <mxCell id="UWuhOz-n3EonqX5J7xm5-35" value="Pasajero" style="swimlane;fontStyle=1;align=center;verticalAlign=top;childLayout=stackLayout;horizontal=1;startSize=26;horizontalStack=0;resizeParent=1;resizeParentMax=0;resizeLast=0;collapsible=1;marginBottom=0;" vertex="1" parent="1">
          <mxGeometry x="442" y="704" width="161" height="124" as="geometry" />
        </mxCell>
        <mxCell id="UWuhOz-n3EonqX5J7xm5-36" value="+ cedula: String&#xa;+ nombres: String&#xa;+ apellidos:String &#xa;+ edad:int" style="text;strokeColor=none;fillColor=none;align=left;verticalAlign=top;spacingLeft=4;spacingRight=4;overflow=hidden;rotatable=0;points=[[0,0.5],[1,0.5]];portConstraint=eastwest;" vertex="1" parent="UWuhOz-n3EonqX5J7xm5-35">
          <mxGeometry y="26" width="161" height="64" as="geometry" />
        </mxCell>
        <mxCell id="UWuhOz-n3EonqX5J7xm5-37" value="" style="line;strokeWidth=1;fillColor=none;align=left;verticalAlign=middle;spacingTop=-1;spacingLeft=3;spacingRight=3;rotatable=0;labelPosition=right;points=[];portConstraint=eastwest;" vertex="1" parent="UWuhOz-n3EonqX5J7xm5-35">
          <mxGeometry y="90" width="161" height="8" as="geometry" />
        </mxCell>
        <mxCell id="UWuhOz-n3EonqX5J7xm5-38" value="+ method(type): type" style="text;strokeColor=none;fillColor=none;align=left;verticalAlign=top;spacingLeft=4;spacingRight=4;overflow=hidden;rotatable=0;points=[[0,0.5],[1,0.5]];portConstraint=eastwest;" vertex="1" parent="UWuhOz-n3EonqX5J7xm5-35">
          <mxGeometry y="98" width="161" height="26" as="geometry" />
        </mxCell>
        <mxCell id="UWuhOz-n3EonqX5J7xm5-39" style="edgeStyle=orthogonalEdgeStyle;rounded=0;orthogonalLoop=1;jettySize=auto;html=1;entryX=0.498;entryY=0.973;entryDx=0;entryDy=0;entryPerimeter=0;endArrow=diamondThin;endFill=0;jumpSize=15;" edge="1" parent="1" source="UWuhOz-n3EonqX5J7xm5-40" target="UWuhOz-n3EonqX5J7xm5-28">
          <mxGeometry relative="1" as="geometry" />
        </mxCell>
        <mxCell id="UWuhOz-n3EonqX5J7xm5-40" value="Asiento" style="swimlane;fontStyle=1;align=center;verticalAlign=top;childLayout=stackLayout;horizontal=1;startSize=26;horizontalStack=0;resizeParent=1;resizeParentMax=0;resizeLast=0;collapsible=1;marginBottom=0;" vertex="1" parent="1">
          <mxGeometry x="4" y="570" width="160" height="86" as="geometry" />
        </mxCell>
        <mxCell id="UWuhOz-n3EonqX5J7xm5-41" value="+ field: type" style="text;strokeColor=none;fillColor=none;align=left;verticalAlign=top;spacingLeft=4;spacingRight=4;overflow=hidden;rotatable=0;points=[[0,0.5],[1,0.5]];portConstraint=eastwest;" vertex="1" parent="UWuhOz-n3EonqX5J7xm5-40">
          <mxGeometry y="26" width="160" height="26" as="geometry" />
        </mxCell>
        <mxCell id="UWuhOz-n3EonqX5J7xm5-42" value="" style="line;strokeWidth=1;fillColor=none;align=left;verticalAlign=middle;spacingTop=-1;spacingLeft=3;spacingRight=3;rotatable=0;labelPosition=right;points=[];portConstraint=eastwest;" vertex="1" parent="UWuhOz-n3EonqX5J7xm5-40">
          <mxGeometry y="52" width="160" height="8" as="geometry" />
        </mxCell>
        <mxCell id="UWuhOz-n3EonqX5J7xm5-43" value="+ method(type): type" style="text;strokeColor=none;fillColor=none;align=left;verticalAlign=top;spacingLeft=4;spacingRight=4;overflow=hidden;rotatable=0;points=[[0,0.5],[1,0.5]];portConstraint=eastwest;" vertex="1" parent="UWuhOz-n3EonqX5J7xm5-40">
          <mxGeometry y="60" width="160" height="26" as="geometry" />
        </mxCell>
        <mxCell id="UWuhOz-n3EonqX5J7xm5-44" value="Tiene" style="edgeStyle=orthogonalEdgeStyle;rounded=0;orthogonalLoop=1;jettySize=auto;html=1;entryX=1;entryY=0.5;entryDx=0;entryDy=0;endArrow=none;endFill=0;" edge="1" parent="1" source="UWuhOz-n3EonqX5J7xm5-30" target="UWuhOz-n3EonqX5J7xm5-8">
          <mxGeometry relative="1" as="geometry" />
        </mxCell>
        <mxCell id="UWuhOz-n3EonqX5J7xm5-46" value="Persona" style="swimlane;fontStyle=1;align=center;verticalAlign=top;childLayout=stackLayout;horizontal=1;startSize=26;horizontalStack=0;resizeParent=1;resizeParentMax=0;resizeLast=0;collapsible=1;marginBottom=0;" vertex="1" parent="1">
          <mxGeometry x="440" y="584" width="160" height="86" as="geometry" />
        </mxCell>
        <mxCell id="UWuhOz-n3EonqX5J7xm5-47" value="+ field: type" style="text;strokeColor=none;fillColor=none;align=left;verticalAlign=top;spacingLeft=4;spacingRight=4;overflow=hidden;rotatable=0;points=[[0,0.5],[1,0.5]];portConstraint=eastwest;" vertex="1" parent="UWuhOz-n3EonqX5J7xm5-46">
          <mxGeometry y="26" width="160" height="26" as="geometry" />
        </mxCell>
        <mxCell id="UWuhOz-n3EonqX5J7xm5-48" value="" style="line;strokeWidth=1;fillColor=none;align=left;verticalAlign=middle;spacingTop=-1;spacingLeft=3;spacingRight=3;rotatable=0;labelPosition=right;points=[];portConstraint=eastwest;" vertex="1" parent="UWuhOz-n3EonqX5J7xm5-46">
          <mxGeometry y="52" width="160" height="8" as="geometry" />
        </mxCell>
        <mxCell id="UWuhOz-n3EonqX5J7xm5-49" value="+ method(type): type" style="text;strokeColor=none;fillColor=none;align=left;verticalAlign=top;spacingLeft=4;spacingRight=4;overflow=hidden;rotatable=0;points=[[0,0.5],[1,0.5]];portConstraint=eastwest;" vertex="1" parent="UWuhOz-n3EonqX5J7xm5-46">
          <mxGeometry y="60" width="160" height="26" as="geometry" />
        </mxCell>
        <mxCell id="UWuhOz-n3EonqX5J7xm5-50" value="Vehiculo" style="swimlane;fontStyle=1;align=center;verticalAlign=top;childLayout=stackLayout;horizontal=1;startSize=26;horizontalStack=0;resizeParent=1;resizeParentMax=0;resizeLast=0;collapsible=1;marginBottom=0;" vertex="1" parent="1">
          <mxGeometry x="4" y="290" width="160" height="104" as="geometry" />
        </mxCell>
        <mxCell id="UWuhOz-n3EonqX5J7xm5-51" value="+ placa: String&#xa;+ modelo: String" style="text;strokeColor=none;fillColor=none;align=left;verticalAlign=top;spacingLeft=4;spacingRight=4;overflow=hidden;rotatable=0;points=[[0,0.5],[1,0.5]];portConstraint=eastwest;" vertex="1" parent="UWuhOz-n3EonqX5J7xm5-50">
          <mxGeometry y="26" width="160" height="44" as="geometry" />
        </mxCell>
        <mxCell id="UWuhOz-n3EonqX5J7xm5-52" value="" style="line;strokeWidth=1;fillColor=none;align=left;verticalAlign=middle;spacingTop=-1;spacingLeft=3;spacingRight=3;rotatable=0;labelPosition=right;points=[];portConstraint=eastwest;" vertex="1" parent="UWuhOz-n3EonqX5J7xm5-50">
          <mxGeometry y="70" width="160" height="8" as="geometry" />
        </mxCell>
        <mxCell id="UWuhOz-n3EonqX5J7xm5-53" value="+ method(type): type" style="text;strokeColor=none;fillColor=none;align=left;verticalAlign=top;spacingLeft=4;spacingRight=4;overflow=hidden;rotatable=0;points=[[0,0.5],[1,0.5]];portConstraint=eastwest;" vertex="1" parent="UWuhOz-n3EonqX5J7xm5-50">
          <mxGeometry y="78" width="160" height="26" as="geometry" />
        </mxCell>
        <mxCell id="UWuhOz-n3EonqX5J7xm5-55" value="" style="endArrow=none;html=1;rounded=0;endFill=0;exitX=1;exitY=0.5;exitDx=0;exitDy=0;entryX=0;entryY=0.5;entryDx=0;entryDy=0;" edge="1" parent="1" source="UWuhOz-n3EonqX5J7xm5-26" target="UWuhOz-n3EonqX5J7xm5-4">
          <mxGeometry relative="1" as="geometry">
            <mxPoint x="180" y="400" as="sourcePoint" />
            <mxPoint x="340" y="400" as="targetPoint" />
          </mxGeometry>
        </mxCell>
        <mxCell id="UWuhOz-n3EonqX5J7xm5-56" value="realiza" style="edgeLabel;resizable=0;html=1;align=center;verticalAlign=middle;" connectable="0" vertex="1" parent="UWuhOz-n3EonqX5J7xm5-55">
          <mxGeometry relative="1" as="geometry" />
        </mxCell>
        <mxCell id="UWuhOz-n3EonqX5J7xm5-57" value="1" style="edgeLabel;resizable=0;html=1;align=left;verticalAlign=bottom;" connectable="0" vertex="1" parent="UWuhOz-n3EonqX5J7xm5-55">
          <mxGeometry x="-1" relative="1" as="geometry" />
        </mxCell>
        <mxCell id="UWuhOz-n3EonqX5J7xm5-58" value="1.. *" style="edgeLabel;resizable=0;html=1;align=right;verticalAlign=bottom;" connectable="0" vertex="1" parent="UWuhOz-n3EonqX5J7xm5-55">
          <mxGeometry x="1" relative="1" as="geometry" />
        </mxCell>
        <mxCell id="UWuhOz-n3EonqX5J7xm5-63" value="" style="endArrow=open;html=1;rounded=0;entryX=0;entryY=0.5;entryDx=0;entryDy=0;exitX=1;exitY=0.5;exitDx=0;exitDy=0;endFill=0;" edge="1" parent="1" source="UWuhOz-n3EonqX5J7xm5-4" target="UWuhOz-n3EonqX5J7xm5-21">
          <mxGeometry relative="1" as="geometry">
            <mxPoint x="360" y="620" as="sourcePoint" />
            <mxPoint x="520" y="620" as="targetPoint" />
          </mxGeometry>
        </mxCell>
        <mxCell id="UWuhOz-n3EonqX5J7xm5-64" value="Tiene" style="edgeLabel;resizable=0;html=1;align=center;verticalAlign=middle;" connectable="0" vertex="1" parent="UWuhOz-n3EonqX5J7xm5-63">
          <mxGeometry relative="1" as="geometry" />
        </mxCell>
        <mxCell id="UWuhOz-n3EonqX5J7xm5-65" value="1" style="edgeLabel;resizable=0;html=1;align=left;verticalAlign=bottom;" connectable="0" vertex="1" parent="UWuhOz-n3EonqX5J7xm5-63">
          <mxGeometry x="-1" relative="1" as="geometry" />
        </mxCell>
        <mxCell id="UWuhOz-n3EonqX5J7xm5-66" value="1" style="edgeLabel;resizable=0;html=1;align=right;verticalAlign=bottom;" connectable="0" vertex="1" parent="UWuhOz-n3EonqX5J7xm5-63">
          <mxGeometry x="1" relative="1" as="geometry" />
        </mxCell>
      </root>
    </mxGraphModel>
  </diagram>
</mxfile>
